<svg xmlns="http://www.w3.org/2000/svg" width="210" height="44" viewBox="0 0 210 44" role="img" aria-label="Oficina Fácil">
  <title>Oficina Fácil</title>
  <defs>
    <linearGradient id="g" x1="0" y1="0" x2="1" y2="1">
      <stop offset="0" stop-color="#34d399"/>
      <stop offset="1" stop-color="#059669"/>
    </linearGradient>
  </defs>
  <rect x="2" y="2" width="40" height="40" rx="11" fill="url(#g)"/>
  <g transform="translate(10 10)" fill="none" stroke="#fff" stroke-width="2.2" stroke-linecap="round" stroke-linejoin="round">
    <path d="M14.7 6.3a1 1 0 0 0 0 1.4l1.6 1.6a1 1 0 0 0 1.4 0l3.77-3.77a6 6 0 0 1-7.94 7.94l-6.91 6.91a2.12 2.12 0 0 1-3-3l6.91-6.91a6 6 0 0 1 7.94-7.94l-3.76 3.76z"/>
  </g>
  <text x="54" y="30" font-family="'Segoe UI', Roboto, Helvetica, Arial, sans-serif" font-size="21" font-weight="800" letter-spacing="-0.3">
    <tspan fill="#ffffff">Oficina</tspan><tspan fill="#34d399" dx="6">Fácil</tspan>
  </text>
</svg>
